<svg xmlns="http://www.w3.org/2000/svg" viewBox="0 0 26.48 13.36"><g id="Layer_2" data-name="Layer 2"><g id="Layer_1-2" data-name="Layer 1"><path d="M8.69,10.56l-.46-.43c-.13-.14-.4-.22-.33-.47s.31-.18.47-.22c.77-.23,1.54-.44,2.31-.65l.77-.22c.56-.14.64-.08.55.47-.13.82-.28,1.65-.42,2.48-.05.32-.11.64-.16,1s-.17.3-.38.17l0,0c-.26-.19-.45-.58-.77-.56s-.56.31-.85.47A6.32,6.32,0,0,1,.29,8.8,8,8,0,0,1,.44,4.07a5.74,5.74,0,0,1,5.17-4,6.71,6.71,0,0,1,6.06,2.47A19.32,19.32,0,0,1,14.35,6.7a12.26,12.26,0,0,0,1.52,2.37,6.18,6.18,0,0,0,4.2,2.32A3.86,3.86,0,0,0,24.43,8a7,7,0,0,0-.06-2.74A4,4,0,0,0,20.85,2a4.93,4.93,0,0,0-4.17,1.34,8.86,8.86,0,0,0-1.23,1.37c-.29.38-.37.37-.6,0s-.4-.72-.63-1.06A.47.47,0,0,1,14.28,3a7.38,7.38,0,0,1,5.35-3c3.19-.17,6.39,1.6,6.8,5.71a8.65,8.65,0,0,1-.35,3.64,5.68,5.68,0,0,1-5.52,4,7.84,7.84,0,0,1-5.74-2.55A12.38,12.38,0,0,1,12.6,7.58a18.6,18.6,0,0,0-2.09-3.4A5.51,5.51,0,0,0,7,2,4.19,4.19,0,0,0,2.06,5.7,9.52,9.52,0,0,0,2,7.47a4.09,4.09,0,0,0,3.78,3.79,4.45,4.45,0,0,0,2.57-.42C8.49,10.78,8.62,10.75,8.69,10.56Z"/></g></g></svg>