<svg xmlns="http://www.w3.org/2000/svg" viewBox="0 0 21.03 20.57"><g id="Layer_2" data-name="Layer 2"><g id="Layer_1-2" data-name="Layer 1"><path d="M21,9.16a5.27,5.27,0,0,1-1.67,4,.92.92,0,0,0-.32,1,5.5,5.5,0,0,1-5.88,6.44,4.7,4.7,0,0,1-2.1-.62.87.87,0,0,0-1,0,5.48,5.48,0,0,1-7.81-3A5,5,0,0,1,2,14.05a.83.83,0,0,0-.29-.9A5.26,5.26,0,0,1,.32,7.41a5.28,5.28,0,0,1,4.55-3.7.78.78,0,0,0,.65-.51A5.31,5.31,0,0,1,10.63,0a5.23,5.23,0,0,1,4.85,3.1,1,1,0,0,0,.84.62A5.46,5.46,0,0,1,21,9.16ZM14.47,3.74a1.06,1.06,0,0,0,0-.21A4.24,4.24,0,0,0,10.6,1.12,4.27,4.27,0,0,0,6.67,3.4c-.13.24-.11.34.19.42a5.48,5.48,0,0,1,3.53,2.72.16.16,0,0,0,.21.11A5.65,5.65,0,0,1,14.47,3.74ZM9.61,18.84a5.81,5.81,0,0,1-1.47-4.76,6.59,6.59,0,0,1-2.47.61,6,6,0,0,1-2.45-.49,4.07,4.07,0,0,0,1.39,4.19A4.33,4.33,0,0,0,9.61,18.84ZM6.72,9.51A5.77,5.77,0,0,1,5,4.87,4.26,4.26,0,0,0,1.3,8a4.18,4.18,0,0,0,1.3,4.31C3.87,10.59,4.24,10.34,6.72,9.51Zm4.81,9.34a4.31,4.31,0,0,0,5.14-.7c1.13-1.11,1.66-2.9,1.15-3.95a5.74,5.74,0,0,1-2.45.49,6.15,6.15,0,0,1-2.43-.62A6.11,6.11,0,0,1,11.53,18.85ZM16,4.86a6.32,6.32,0,0,1-.3,2.48,6.41,6.41,0,0,1-1.38,2.17c2,.46,2.46.81,4.14,2.8a4.22,4.22,0,0,0,1.24-4.4A4.3,4.3,0,0,0,16,4.86Zm-4.41,6.28a2.91,2.91,0,0,0,.63,1,4.37,4.37,0,0,0,4.93,1.13c.34-.14.35-.18.17-.49A4.3,4.3,0,0,0,11.63,11.14ZM10.49,12a4.33,4.33,0,0,0-.23,5.88c.28.31.29.31.56,0a4.08,4.08,0,0,0,.54-.81A4.26,4.26,0,0,0,10.49,12Zm-1.08-.78a4.26,4.26,0,0,0-5.63,1.46c-.28.42-.26.46.22.64A4.34,4.34,0,0,0,9.41,11.18Zm.52-2.09A4.37,4.37,0,0,0,8.45,5.9a4.42,4.42,0,0,0-1.82-1c-.4-.1-.46,0-.5.37a1.6,1.6,0,0,0,0,.31,4.44,4.44,0,0,0,3,4.07C9.9,9.92,9.94,9.89,9.93,9.09Zm1.28.69a4.32,4.32,0,0,0,3.7-4.57c0-.33-.1-.38-.44-.3A4.3,4.3,0,0,0,11.21,9.78Z"/></g></g></svg>