<svg xmlns="http://www.w3.org/2000/svg" viewBox="0 0 20.3 21.5"><g id="Layer_2" data-name="Layer 2"><g id="Layer_1-2" data-name="Layer 1"><path d="M18.74,13.22v7.92c0,.26-.13.36-.39.36-.45,0-.9,0-1.35,0H14.48c-.68,0-.69,0-.69-.68V14.68c0-1.55,0-3.11,0-4.67a1.25,1.25,0,0,1,.43-1c1.31-1.23,2.61-2.48,3.92-3.72l.13-.13c.09-.08.19-.19.32-.15s.15.23.15.36v7.87Z"/><path d="M12.59,16.24V21c0,.41-.05.45-.47.45H9.42c-.46,0-.91,0-1.36,0-.28,0-.42-.11-.42-.4v-.31q0-4.48,0-9c0-.21-.12-.51.11-.62s.41.21.58.37c.48.46,1,.95,1.42,1.44.2.21.34.23.55,0,.53-.57,1.09-1.11,1.64-1.66a1.75,1.75,0,0,1,.32-.29c.14-.09.28-.07.3.14a3.93,3.93,0,0,1,0,.49Z"/><path d="M10,9.12,17.4,1.69c-.1-.2-.35-.36-.53-.57S16.68.77,17,.7L20,0c.24-.06.38,0,.33.26l-.72,3.23s-.05.06-.1.11A2.39,2.39,0,0,1,18.79,3c-.14-.14-.26-.17-.41,0s-.2.2-.3.3l-7.57,7.56c-.49.49-.43.53-.94,0L6.83,8.17c-.3-.3-.31-.3-.62,0L1.6,12.78c-.09.09-.17.18-.26.26-.34.32-.35.33-.69,0-.89-.9-.84-.61,0-1.45C2.41,9.77,4.2,8,6,6.22l.31-.31c.18-.22.33-.16.5,0l.52.52C8.21,7.36,9.1,8.26,10,9.12Z"/><path d="M6.37,15.89c0,1.66,0,3.32,0,5,0,.61,0,.62-.61.63H1.94c-.5,0-.54,0-.54-.51,0-1.92,0-3.85,0-5.77a1,1,0,0,1,.36-.81l4.1-3.89c.1-.1.19-.25.35-.19s.16.26.16.42C6.37,12.46,6.36,14.17,6.37,15.89Z"/></g></g></svg>