<svg xmlns="http://www.w3.org/2000/svg" viewBox="0 0 22.79 19.44"><g id="Layer_2" data-name="Layer 2"><g id="Layer_1-2" data-name="Layer 1"><path d="M11.41,9.8H21.92c.15,0,.29,0,.43,0,.42,0,.49.12.41.54a10.34,10.34,0,0,1-4.21,6.49,10.29,10.29,0,0,1-2.75,1.48c-.38.13-.61.29-.55.73s-.17.41-.46.4H8.33c-.56,0-.57,0-.62-.56a.39.39,0,0,0-.29-.41,7.61,7.61,0,0,1-.75-.28A10.79,10.79,0,0,1,.16,11c0-.16-.07-.32-.1-.48-.13-.65-.1-.7.59-.7Z"/><path d="M16.08,8.82a1.42,1.42,0,0,1,0-.19A2.67,2.67,0,0,0,15.27,6a3.8,3.8,0,0,1-1-2.81A5.64,5.64,0,0,1,15.17.43.8.8,0,0,1,15.8,0a.66.66,0,0,1,.65.27.56.56,0,0,1,0,.68,5,5,0,0,0-.69,1.7,2.86,2.86,0,0,0,.58,2.53,7.78,7.78,0,0,1,.71.92,3.74,3.74,0,0,1,.49,2.36c0,.27-.14.42-.43.39A6.07,6.07,0,0,1,16.08,8.82Z"/><path d="M11.64,8.8a8.29,8.29,0,0,0,.09-1.1A3,3,0,0,0,11,6.12c-1.68-1.76-1.26-4-.16-5.76A.7.7,0,0,1,11.22,0,.7.7,0,0,1,12,.25.56.56,0,0,1,12,1a5.24,5.24,0,0,0-.66,1.58A3,3,0,0,0,12,5.26a8.48,8.48,0,0,1,.63.82,3.53,3.53,0,0,1,.51,2.35c0,.29-.12.46-.44.43A4,4,0,0,1,11.64,8.8Z"/><path d="M7.21,8.86a6.73,6.73,0,0,0,.08-1.23A3.24,3.24,0,0,0,6.44,6a3.71,3.71,0,0,1-1-2.19A5.35,5.35,0,0,1,6.4.31.61.61,0,0,1,6.74.06a.74.74,0,0,1,.84.19.6.6,0,0,1,0,.74,5,5,0,0,0-.66,1.58,2.87,2.87,0,0,0,.63,2.69,4.89,4.89,0,0,1,1,1.55A3.88,3.88,0,0,1,8.69,8.5c0,.24-.13.37-.39.36Z"/></g></g></svg>