<svg xmlns="http://www.w3.org/2000/svg" viewBox="0 0 32.31 13.84"><g id="Layer_2" data-name="Layer 2"><g id="Layer_1-2" data-name="Layer 1"><path d="M6.44,7.36a.66.66,0,0,1,.75.45c.06.12.15.24.22.36a.67.67,0,0,0,.75.41h.25a1.07,1.07,0,0,0,1.26-.71c.12-.25.24-.54.62-.5.21,0,.19-.17.23-.3.25-.78.48-1.57.73-2.35A2.48,2.48,0,0,1,11.52,4a1.17,1.17,0,0,1,1.06-.61c.68,0,1.35,0,2,0a1.12,1.12,0,0,1,1.19.78c.36,1,.67,2.07,1,3.11.1.37,0,.58-.27.66s-.49,0-.64-.4a2.46,2.46,0,0,1-.09-.29c-.19-.65-.39-1.29-.58-1.94,0-.13,0-.29-.32-.34a23.32,23.32,0,0,0,.61,2.43c.21.78.43,1.57.65,2.39a1.68,1.68,0,0,1-.73.08c-.45,0-.46,0-.46.49,0,.86,0,1.72,0,2.58,0,.58-.19.85-.57.86s-.57-.27-.58-.84V10.54c0-.14,0-.29,0-.43a.16.16,0,0,0-.19-.18.16.16,0,0,0-.13.18c0,.16,0,.33,0,.49,0,.88,0,1.76,0,2.64a.57.57,0,1,1-1.14,0,3.09,3.09,0,0,1,0-.43V10.65c0-.11,0-.21,0-.31,0-.31-.07-.46-.41-.44a1.61,1.61,0,0,1-.75-.05,4.81,4.81,0,0,1,.25-1.06c.28-1.07.59-2.13.88-3.2.05-.18.16-.37,0-.57-.25,0-.21.24-.26.38-.22.7-.41,1.41-.64,2.12-.15.46-.22.52-.71.44a.3.3,0,0,0-.37.2c-.23.42-.45.83-.69,1.24a1.21,1.21,0,0,0-.06.95c.13.47.26,1,.38,1.42-.07.2-.34.06-.4.21a1.51,1.51,0,0,0,0,.48c0,.28,0,.57,0,.86a.47.47,0,0,1-.43.51c-.26,0-.47-.18-.5-.51s0-.53,0-.8a1,1,0,0,0-.06-.58c-.21,0-.19.14-.19.26,0,.37,0,.74,0,1.1s-.2.56-.46.53a.46.46,0,0,1-.43-.5c0-.37,0-.74,0-1.11,0-.14,0-.31-.19-.31s-.28-.15-.21-.37c.12-.41.2-.83.34-1.24a1.18,1.18,0,0,0-.13-1c-.22-.37-.42-.75-.63-1.13C6.49,8,6.43,7.93,6.2,8c-.47.14-.65,0-.66-.49,0-.75,0-1.51,0-2.27,0-.21.09-.57-.18-.57s-.18.36-.18.55q0,3.72,0,7.44a3.35,3.35,0,0,1,0,.55.65.65,0,0,1-.72.61.64.64,0,0,1-.59-.66c0-.15,0-.29,0-.43V9c0-.13,0-.25,0-.37s0-.39-.18-.39-.17.25-.17.4c0,1.39,0,2.79,0,4.18a2.69,2.69,0,0,1,0,.49.62.62,0,0,1-.59.53.63.63,0,0,1-.68-.49,2,2,0,0,1,0-.55V5.39c0-.17,0-.33,0-.5s0-.27-.18-.25-.18.14-.18.27c0,.68,0,1.36,0,2a2.24,2.24,0,0,1-.22,1.18,4.09,4.09,0,0,0-.28,1.25l-.75,4a2,2,0,0,1-.05.24c0,.14-.13.27-.31.22S0,13.64,0,13.51s0-.29.06-.43c.29-1.55.58-3.1.88-4.64a.94.94,0,0,0,0-.66,1.43,1.43,0,0,1,0-.42c0-1,0-1.93,0-2.89a1.61,1.61,0,0,1,1.7-1.68c.74,0,1.48,0,2.21,0A1.54,1.54,0,0,1,6.44,4.44C6.45,5.38,6.44,6.33,6.44,7.36Z"/><path d="M31,9.11c0,1.25,0,2.5,0,3.75a2,2,0,0,1,0,.49.63.63,0,0,1-.65.46.64.64,0,0,1-.62-.5,2.68,2.68,0,0,1,0-.49c0-1.38,0-2.75,0-4.12,0-.18.11-.48-.2-.47s-.16.29-.16.46c0,1.37,0,2.74,0,4.11a2.64,2.64,0,0,1,0,.49.58.58,0,0,1-.53.51.63.63,0,0,1-.7-.38,1.71,1.71,0,0,1-.07-.67Q28,9,28,5.31c0-.16,0-.32,0-.49s0-.16-.13-.17-.18.07-.2.17a3.1,3.1,0,0,0,0,.43c0,.68,0,1.35,0,2a3.09,3.09,0,0,1,0,.43.44.44,0,0,1-.85,0,1.5,1.5,0,0,1,0-.43c0-.94,0-1.88,0-2.82a1.63,1.63,0,0,1,1.73-1.72c.74,0,1.48,0,2.21,0a1.52,1.52,0,0,1,1.64,1.6c0,1,0,2,0,3a1.51,1.51,0,0,1,0,.3.42.42,0,0,1-.44.35.4.4,0,0,1-.43-.37,5.93,5.93,0,0,1,0-.73c0-.6,0-1.19,0-1.78a2,2,0,0,0,0-.43c0-.08-.09-.12-.18-.11a.13.13,0,0,0-.13.11,4.1,4.1,0,0,0,0,.49C31,6.53,31,7.82,31,9.11Z"/><path d="M17.75,9.84l1.3-4.76c-.26-.09-.28,0-.32.15l-.6,2a2,2,0,0,1-.11.35c-.14.37-.35.5-.63.4s-.38-.3-.28-.65c.3-1,.61-2.09,1-3.11a1.13,1.13,0,0,1,1.19-.79c.65,0,1.31,0,2,0a1.16,1.16,0,0,1,1.23.82c.35,1,.64,2,.95,3a.8.8,0,0,1,0,.31.39.39,0,0,1-.32.39.41.41,0,0,1-.52-.21A7.69,7.69,0,0,1,22.32,7c-.17-.55-.33-1.1-.5-1.65A.41.41,0,0,0,21.61,5c-.15.23,0,.43,0,.63l1,3.61c.05.19.1.38.15.6A1.88,1.88,0,0,1,22,9.9c-.29,0-.39.1-.38.4,0,.88,0,1.76,0,2.64a2,2,0,0,1,0,.49.57.57,0,0,1-1.09,0,2,2,0,0,1,0-.43c0-.82,0-1.63,0-2.45,0-.13,0-.25,0-.37s0-.22-.15-.23-.17.09-.17.2v.43c0,.76,0,1.52,0,2.28,0,.14,0,.28,0,.43a.58.58,0,0,1-.61.56.55.55,0,0,1-.53-.56c0-.41,0-.82,0-1.23,0-.59,0-1.19,0-1.78,0-.27-.11-.36-.37-.36A2,2,0,0,1,17.75,9.84Z"/><path d="M24,9.8a2.6,2.6,0,0,0-.45,1c-.06.13-.09.28-.15.4a.27.27,0,0,1-.37.11.25.25,0,0,1-.17-.29.69.69,0,0,1,.05-.24L23.65,9a.9.9,0,0,1,1-.6c.39,0,.78,0,1.17,0a.83.83,0,0,1,.85.58c.2.54.42,1.07.63,1.6a1,1,0,0,1,.08.29.31.31,0,0,1-.22.33.25.25,0,0,1-.34-.18l-.33-.85c0-.09-.05-.2-.19-.27a.66.66,0,0,0-.06.39v2.52c0,.12,0,.24,0,.37,0,.47-.19.71-.5.69s-.45-.22-.46-.67,0-.7,0-1.05c0-.13,0-.29-.13-.4-.17,0-.13.21-.14.33,0,.43,0,.86,0,1.29a.47.47,0,0,1-.45.5.43.43,0,0,1-.47-.32A2,2,0,0,1,24,13c0-.92,0-1.84,0-2.76Z"/><path d="M29.51,2.35a1.17,1.17,0,0,1-1.18-1.16A1.2,1.2,0,0,1,29.55,0a1.16,1.16,0,0,1,1.13,1.2A1.14,1.14,0,0,1,29.51,2.35Z"/><path d="M3.62,2.35A1.15,1.15,0,0,1,2.48,1.16,1.18,1.18,0,1,1,3.62,2.35Z"/><path d="M13.69.7a1.09,1.09,0,0,1,1.05,1.13,1.13,1.13,0,0,1-1.18,1.09A1.15,1.15,0,0,1,12.5,1.77,1.11,1.11,0,0,1,13.69.7Z"/><path d="M20.32.7a1.09,1.09,0,0,1,1.06,1.17,1.12,1.12,0,0,1-2.24-.1A1.12,1.12,0,0,1,20.32.7Z"/><path d="M25.1,6.15A.92.92,0,0,1,26,7.1a.88.88,0,0,1-.89.9.92.92,0,0,1-1-.91A.94.94,0,0,1,25.1,6.15Z"/><path d="M8.47,6.15a.94.94,0,0,1,.9,1,.93.93,0,0,1-1.85,0A.93.93,0,0,1,8.47,6.15Z"/></g></g></svg>