<svg xmlns="http://www.w3.org/2000/svg" viewBox="0 0 21.9 21.89"><g id="Layer_2" data-name="Layer 2"><g id="Layer_1-2" data-name="Layer 1"><path d="M11,7.19c1.13,0,2.26,0,3.39,0,.58,0,.59,0,.59.56s0,1,0,1.54c0,.31-.09.44-.42.44H7.39c-.34,0-.43-.14-.42-.44,0-.56,0-1.11,0-1.66s0-.44.47-.44C8.62,7.18,9.79,7.19,11,7.19Z"/><path d="M11,14.67H7.51c-.53,0-.53,0-.53-.55s0-1,0-1.54c0-.31.1-.44.42-.43.68,0,1.35,0,2,0h5c.53,0,.54,0,.54.55s0,1,0,1.47,0,.49-.48.49Z"/><path d="M7.16,18.12h7.48c0,.19-.08.25-.16.33q-1.61,1.62-3.22,3.22c-.3.3-.31.3-.63,0-1.09-1.08-2.17-2.17-3.26-3.26Z"/><path d="M14.64,3.76H7.27c-.1-.15,0-.22.11-.3C8.47,2.37,9.56,1.29,10.64.19c.2-.2.35-.29.6,0,1.1,1.12,2.22,2.23,3.33,3.35A.19.19,0,0,1,14.64,3.76Z"/><path d="M18.17,7.27a.25.25,0,0,1,.26.09l3.3,3.29c.21.2.23.34,0,.55-1.13,1.1-2.24,2.22-3.35,3.33a.78.78,0,0,1-.15.1l-.06,0,0,0,0-6.69A1.42,1.42,0,0,1,18.17,7.27Z"/><path d="M3.76,7.22v7.37c-.15.07-.22,0-.28-.09Q1.83,12.85.17,11.21c-.15-.16-.27-.29-.05-.5L3.56,7.29A.73.73,0,0,1,3.76,7.22Z"/></g></g></svg>