<svg xmlns="http://www.w3.org/2000/svg" viewBox="0 0 23.65 19.31"><g id="Layer_2" data-name="Layer 2"><g id="Layer_1-2" data-name="Layer 1"><path d="M17.71,1.38V14.83c0,.6,0,.6-.59.78l-6.58,2c-.13,0-.26.13-.42.06s-.07-.3-.07-.46v-11a.71.71,0,0,1,.37-.75c2.32-1.31,4.62-2.65,6.92-4A.44.44,0,0,1,17.71,1.38Z"/><path d="M1.65,1.3c.19.09.3.14.4.2,2.26,1.3,4.5,2.61,6.76,3.89a.73.73,0,0,1,.43.72c0,3.73,0,7.45,0,11.18,0,.12,0,.24,0,.35-.2.08-.34,0-.5-.07l-6.64-2c-.31-.09-.46-.21-.46-.58,0-4.46,0-8.93,0-13.39C1.63,1.53,1.64,1.46,1.65,1.3Z"/><path d="M18.5,1.25c.25.18.37.28.51.36a.69.69,0,0,1,.33.67q0,6.83,0,13.65c0,.55,0,.46-.47.62l-8.14,2.58a3.49,3.49,0,0,1-2.05,0C6,18.42,3.22,17.68.51,16.91,0,16.77,0,16.9,0,16.25,0,11.64,0,7,0,2.42c0-.61.31-.85.84-1.13V15.61c0,.59,0,.59.55.74l1.89.53c1.85.52,3.71,1,5.56,1.56a2.87,2.87,0,0,0,1.69,0L17.94,16c.56-.18.56-.19.56-.75v-14Z"/><path d="M22.7,18.13a16.22,16.22,0,0,1-.88-4.39c.07-3.5,0-7,0-10.5,0-.74-.05-.67.65-.67.29,0,.58,0,.86,0s.3.08.3.29,0,.33,0,.49c0,3.73,0,7.46,0,11.18a4.33,4.33,0,0,1-.2,1.39c-.2.64-.37,1.3-.56,2A.28.28,0,0,1,22.7,18.13Z"/><path d="M22.74,1.88h-.12c-.26-.07-.68.19-.75-.18A1.47,1.47,0,0,1,22.15.25a.85.85,0,0,1,1-.14.84.84,0,0,1,.46.62.55.55,0,0,1,0,.18C23.63,2.09,23.78,1.85,22.74,1.88Z"/></g></g></svg>