<svg xmlns="http://www.w3.org/2000/svg" viewBox="0 0 15.67 21.51"><g id="Layer_2" data-name="Layer 2"><g id="Layer_1-2" data-name="Layer 1"><path d="M10.82,18.54a.27.27,0,0,1-.1.24c-.86.85-1.71,1.7-2.56,2.57-.2.19-.34.23-.56,0-.84-.86-1.7-1.71-2.55-2.57a.84.84,0,0,1-.11-.2,2.42,2.42,0,0,1,.84-.06c.21,0,.3-.1.29-.3-.05-.68-.1-1.35-.16-2,0-.28-.24-.23-.42-.23H3.16c-.59,0-.59,0-.68-.59Q1.45,9.2.42,3C.29,2.22.15,1.41,0,.6,0,.05,0,0,.56,0H15.13c.54,0,.59.05.5.62-.2,1.4-.42,2.79-.64,4.19-.35,2.28-.71,4.57-1.07,6.85-.2,1.3-.41,2.59-.6,3.88,0,.35-.19.44-.52.44-.82,0-1.64,0-2.46,0-.45,0-.45,0-.49.48s-.08,1.1-.14,1.65c0,.26.07.37.34.37A2,2,0,0,1,10.82,18.54ZM.76.78a1.43,1.43,0,0,0,0,.65C.9,2,1,2.64,1.15,3.24s.17.61.73.52a9.35,9.35,0,0,0,2-.55,3,3,0,0,1,2.22,0l1.32.5a7.1,7.1,0,0,0,2.32.51,7.31,7.31,0,0,0,3.1-.65,2.53,2.53,0,0,1,1.43-.26c.25,0,.33-.08.36-.29.08-.53.18-1.05.25-1.58.11-.7.1-.7-.62-.7H1.37A1.17,1.17,0,0,0,.76.78ZM7.88,5.93C7.09,7.09,6.37,8.16,5.71,9.27a3.13,3.13,0,0,0-.36,1A2.42,2.42,0,0,0,7,13.08a3.37,3.37,0,0,0,1.34.09,2.35,2.35,0,0,0,2.08-1.74A2.79,2.79,0,0,0,10,9.25c-.32-.57-.68-1.12-1-1.67S8.28,6.53,7.88,5.93Z"/></g></g></svg>