<svg xmlns="http://www.w3.org/2000/svg" viewBox="0 0 22.9 19.32"><g id="Layer_2" data-name="Layer 2"><g id="Layer_1-2" data-name="Layer 1"><path d="M.17,8.94a5.3,5.3,0,0,1,3.11,1.17,8.7,8.7,0,0,1,2.17,2.53c.22-.15.4-.27.57-.4a19.47,19.47,0,0,1,5.16-2.82,8.61,8.61,0,0,1,7.18.6,14.63,14.63,0,0,1,4.37,3.73.46.46,0,0,1,0,.69,14,14,0,0,1-5.13,4.11,8.45,8.45,0,0,1-6.29.3A19,19,0,0,1,6,15.94l-.44-.33c-.24.1-.3.34-.42.52A7.23,7.23,0,0,1,2,18.88a4,4,0,0,1-1.77.4c-.09-.29.1-.46.2-.65a11.3,11.3,0,0,0,1.3-3.75,6.79,6.79,0,0,0-.25-2.73,11.58,11.58,0,0,0-1-2.55A.92.92,0,0,1,.17,8.94Zm16.65,2.93A1.39,1.39,0,1,0,18.2,13.3,1.39,1.39,0,0,0,16.82,11.87Z"/><path d="M2.34,6.26A3.08,3.08,0,0,1,.45,5.64,1.3,1.3,0,0,1,.06,4.29c.06-.13.15-.13.26-.09l.39.16A4.1,4.1,0,0,0,5,3.71c.37-.3.37-.3.77,0a6.78,6.78,0,0,0,1.19.63,3.83,3.83,0,0,0,4.14-.63.42.42,0,0,1,.67,0,3.88,3.88,0,0,0,4.31.56,5.37,5.37,0,0,0,1.12-.63.39.39,0,0,1,.58,0,4.11,4.11,0,0,0,4.53.68l.23-.1c.13,0,.22,0,.26.14a1.15,1.15,0,0,1-.6,1.44,3.15,3.15,0,0,1-2.83.27,4.66,4.66,0,0,1-1.5-.93c-.19-.17-.34-.2-.52,0l-.09.08a4,4,0,0,1-4.76.4,4.83,4.83,0,0,1-.77-.5.39.39,0,0,0-.58,0,5.15,5.15,0,0,1-1.45.8,3.89,3.89,0,0,1-3.94-.59l-.28-.23a.26.26,0,0,0-.42,0,4.54,4.54,0,0,1-.48.39A3.79,3.79,0,0,1,2.34,6.26Z"/><path d="M22.79,1.34c.09.37-.12.63-.46.85a3.2,3.2,0,0,1-3.43.17,4.12,4.12,0,0,1-1.06-.74.31.31,0,0,0-.51,0,4.08,4.08,0,0,1-.39.31,3.83,3.83,0,0,1-3.55.56,4.77,4.77,0,0,1-1.63-.84.45.45,0,0,0-.68,0,4.71,4.71,0,0,1-1.17.68,3.92,3.92,0,0,1-4.26-.58c-.39-.31-.34-.38-.8,0A4.5,4.5,0,0,1,3,2.7,3.14,3.14,0,0,1,.35,2.08,1.4,1.4,0,0,1,.07.79C.15.64.28.7.39.74c.33.11.65.25,1,.33A4,4,0,0,0,5,.24c.4-.31.4-.31.82,0A5.89,5.89,0,0,0,7,.81,3.87,3.87,0,0,0,11.06.2c.24-.2.4-.27.67,0a3.92,3.92,0,0,0,4.48.5,4.44,4.44,0,0,0,.9-.51c.29-.23.48-.18.74.05a4,4,0,0,0,1.79.9A4.42,4.42,0,0,0,22.28.81c.49-.19.5-.18.51.35v.18Z"/></g></g></svg>