<svg xmlns="http://www.w3.org/2000/svg" viewBox="0 0 20.32 19.02"><g id="Layer_2" data-name="Layer 2"><g id="Layer_1-2" data-name="Layer 1"><path d="M18.14,1.92q.06.13.18.06c.13-.08.17-.29.36-.28.12.2,0,.29-.12.38-.26.31-.55.61-.83.91A3.93,3.93,0,0,0,17,4c-.29.6-.29.62.23,1.07,0,.11-.07.13-.15.13-.26,0-.37.13-.32.39l.18.9c0,.11.12.22-.06.36a3.81,3.81,0,0,1-.4-1.5,1.88,1.88,0,0,0-1.91,1.61,5,5,0,0,0-.11,1.34,4.1,4.1,0,0,1-2.71,4.25,7.7,7.7,0,0,1-1.94.56c-.27.05-.4.12-.39.42s0,.82,0,1.23c0,.25.07.37.34.39A22.39,22.39,0,0,0,14.61,15c.24,0,.3-.13.31-.35s-.13-.67.1-.89.66-.1,1-.11c.78,0,1.56,0,2.34,0,.49,0,.54,0,.54.52,0,1,0,2,0,3,0,.45,0,.52-.48.52-1,0-2,0-3,0-.43,0-.48-.07-.49-.51,0-.85,0-.82-.92-.93a43.76,43.76,0,0,0-5.95,0c-2,0-4,.09-6,.13-.56,0-.6.12-.59-.6v-.06c0-.67-.11-.69.65-.67l5,.12c.5,0,.51,0,.51-.51s.15-.93-.07-1.27-.76-.18-1.15-.28A6.53,6.53,0,0,1,4.6,12.3L2.51,11l.61.06a3.25,3.25,0,0,0,2-.44A10.06,10.06,0,0,1,7,9.56c.06-.09,0-.11,0-.12A3.59,3.59,0,0,1,4.32,7.09,18.56,18.56,0,0,1,3.77,5c-.08-.3-.16-.59-.25-.89A2.84,2.84,0,0,0,2.35,2.45,5.81,5.81,0,0,1,5.73,3,7.94,7.94,0,0,1,7.8,4.51a6.68,6.68,0,0,0,1.07.91,3,3,0,0,0,3.85-.24c.36-.31.7-.63,1.07-.93a3.42,3.42,0,0,1,1-.59A1.07,1.07,0,0,1,16,3.93a1.44,1.44,0,0,0,.57.47,4.9,4.9,0,0,1,1.48-2.11c.09-.1.29-.21.07-.38ZM8.9,14.17c0-.21,0-.41,0-.62s-.13-.33-.37-.33-.38.08-.37.35a9.14,9.14,0,0,1,0,1.17c0,.33.16.35.42.36s.33-.15.32-.38S8.9,14.35,8.9,14.17Z"/><path d="M17,19H15.18c-.42,0-.62-.19-.62-.52s.2-.53.61-.54h3.51c.4,0,.6.23.58.56s-.21.49-.64.5Z"/><path d="M17,12.23h1.53a1.53,1.53,0,0,1,.37,0,.47.47,0,0,1,.4.53.45.45,0,0,1-.4.47,4,4,0,0,1-.49,0H15.12c-.38,0-.56-.2-.56-.51s.19-.5.56-.51c.61,0,1.22,0,1.84,0Z"/><path d="M1.15,15.58c0,.14,0,.29,0,.43,0,.41-.18.56-.56.56S0,16.44,0,16a8.26,8.26,0,0,1,0-.86.49.49,0,0,1,.58-.54c.34,0,.51.17.55.52,0,.14,0,.29,0,.43Z"/><path d="M19.1,1.5c-.2,0-.24-.09-.24-.26A1.22,1.22,0,0,1,20.1,0c.2,0,.23.12.22.29A1.22,1.22,0,0,1,19.1,1.5Z"/><path d="M18.14,1.91a.43.43,0,0,1-.61-.08A1.1,1.1,0,0,1,17.48.22c.68.37.84.71.67,1.41,0,.1-.08.19,0,.29Z"/><path d="M16.05,2.18a1,1,0,0,1,.33-.76c.12-.08.51.29.65.58a1.28,1.28,0,0,1-.14,1.16.18.18,0,0,1-.21,0A1.27,1.27,0,0,1,16.05,2.18Z"/><path d="M19.22,3.93c-.55.5-1,.53-1.49.1-.26-.23-.25-.33,0-.49C18.31,3.22,18.76,3.35,19.22,3.93Z"/><path d="M18.51,2.69C19,2.1,19.52,2,20,2.33c.25.17.26.24,0,.46C19.58,3.23,19.14,3.21,18.51,2.69Z"/></g></g></svg>