<svg xmlns="http://www.w3.org/2000/svg" viewBox="0 0 20.8 20.34"><g id="Layer_2" data-name="Layer 2"><g id="Layer_1-2" data-name="Layer 1"><path d="M1.8,7c-.09-.2-.27-.28-.39-.41A2.18,2.18,0,0,1,.87,4.36,2.13,2.13,0,0,1,2.5,2.85a2,2,0,0,1,.42-.08c.18,0,.23-.11.27-.27a3,3,0,0,1,.18-.65A3,3,0,0,1,7,.11a3,3,0,0,1,2.16,3.4c0,.12,0,.25-.07.36-.1.43-.11.43.3.6a3.35,3.35,0,0,1,1.72,4.79A3.12,3.12,0,0,1,8.28,11c-1.58,0-3.16,0-4.74,0a2.38,2.38,0,0,1-2-3.52C1.61,7.29,1.71,7.14,1.8,7Z"/><path d="M10.39,20.34H.81c-.15,0-.29,0-.43,0S.07,20.21.05,20c-.12-1.08-.08-1.13,1-1.13h19c.83,0,.74-.05.75.78,0,.12,0,.24,0,.36s-.11.34-.34.33-.28,0-.43,0Z"/><path d="M10.46,17.86H.33a.24.24,0,0,1-.27-.26.13.13,0,0,1,0-.06c-.13-1.07-.07-1.14,1-1.14H20c.83,0,.75-.07.76.76v.24c0,.45,0,.46-.45.46H10.46Z"/><path d="M15,7.7A2.48,2.48,0,0,1,16.21,8a.94.94,0,0,0,1.15,0,2.23,2.23,0,0,1,2.44,0l.25.18c.14.12.32.26.21.46s-.32,0-.48,0A2.68,2.68,0,0,0,17.61,9a3.63,3.63,0,0,0-.55.39.36.36,0,0,1-.54,0,1.7,1.7,0,0,0-.34-.26,2.63,2.63,0,0,0-2.49-.4c-.12,0-.25.09-.34,0a.28.28,0,0,1,.08-.38A2.45,2.45,0,0,1,15,7.7Z"/><path d="M12.16,3.36a1.72,1.72,0,0,0-.62.19c-.12.05-.24.08-.32,0a.28.28,0,0,1,.06-.34,1.92,1.92,0,0,1,1.55-.6,1.54,1.54,0,0,1,.76.2.71.71,0,0,0,.88,0,1.88,1.88,0,0,1,1.75-.22,1.38,1.38,0,0,1,.39.18c.17.11.42.21.33.45s-.34.08-.52,0a2.31,2.31,0,0,0-1.87.56c-.43.35-.42.35-.91,0A2.84,2.84,0,0,0,12.16,3.36Z"/><path d="M7.12,13.4c0,.42,0,.85,0,1.28s-.11.39-.4.39c-1.3,0-1,.14-1.06-1,0-.61,0-1.23,0-1.84,0-.33.13-.42.43-.42,1.26,0,1-.11,1,1Z"/><path d="M16.3,0a1.41,1.41,0,0,1,1.09.44.7.7,0,0,0,.7.22,1.5,1.5,0,0,1,1.5.48,1.27,1.27,0,0,1,.2.31.22.22,0,0,1-.06.27.21.21,0,0,1-.23,0l-.15-.11a1.63,1.63,0,0,0-1.53-.08.47.47,0,0,1-.67-.19A1.63,1.63,0,0,0,15.7.59c-.14,0-.26,0-.27-.17s.09-.21.2-.27A1.36,1.36,0,0,1,16.3,0Z"/></g></g></svg>