<svg xmlns="http://www.w3.org/2000/svg" viewBox="0 0 28.76 21.5"><g id="Layer_2" data-name="Layer 2"><g id="Layer_1-2" data-name="Layer 1"><path d="M7.59,10.73V.83c0-.14,0-.29,0-.43,0-.29.1-.4.39-.4H13.7c.29,0,.41.11.39.4,0,.12,0,.24,0,.37v20c0,.6,0,.6-.61.6H7.83a.22.22,0,0,1-.23-.23c0-.17,0-.33,0-.5ZM13,3.79c0-1,.16-.9-.91-.91h-.19c-.43,0-.45,0-.47.45s0,.57,0,.85,0,.43.47.45h.25C13.15,4.63,13,4.69,13,3.79Zm-2.75,0V3.35c0-.44,0-.47-.45-.47-1.39,0-1.09-.15-1.12,1.06,0,.1,0,.21,0,.31,0,.3.12.4.4.38h.3C10.35,4.63,10.25,4.69,10.26,3.78Zm0,7.18c0-.92.07-.84-.87-.84H9c-.17,0-.27.09-.27.27v1.22c0,.18.12.24.28.25h.37C10.39,11.86,10.25,12,10.26,11Zm1.18,0c0,.15,0,.29,0,.43,0,.31.09.46.42.44s.57,0,.85,0,.31-.08.3-.29c0-.37,0-.74,0-1.11s-.12-.36-.37-.34-.21,0-.31,0C11.38,10.13,11.44,10,11.44,11ZM8.69,7.37v.49c0,.25.07.39.34.38H10c.2,0,.3-.1.29-.3s0-.69,0-1-.14-.4-.41-.38H9.54C8.57,6.52,8.7,6.41,8.69,7.37Zm0,7.26c0,.21,0,.41,0,.62a.22.22,0,0,0,.23.23c.41,0,.87.15,1.2-.07s.08-.65.12-1c0-.1,0-.2,0-.31s-.12-.37-.37-.35H9.58C8.56,13.77,8.7,13.64,8.69,14.63Zm4.32,0c0-1,.13-.87-.88-.88h-.31c-.25,0-.38.08-.38.35s0,.65,0,1,.12.42.41.4h.3C13.11,15.47,13,15.59,13,14.64Zm-2.75,3.59v-.31c0-.56,0-.56-.6-.56H9c-.26,0-.36.12-.35.37s0,.66,0,1,.07.39.34.37H9.4C10.35,19.07,10.25,19.19,10.26,18.23ZM13,7.4c0-1,.13-.87-.87-.89h-.25c-.31,0-.46.08-.45.41s0,.61,0,.92.11.42.4.4h.31C13.12,8.22,13,8.35,13,7.4Zm0,10.85c0-1,.13-.88-.87-.89h-.31c-.25,0-.39.08-.39.34s0,.7,0,1,.09.35.33.34h.37C13.12,19.07,13,19.2,13,18.25Z"/><path d="M21.44,12.67v8.24c0,.54,0,.56-.55.57H15.6c-.65,0-.65,0-.65-.63,0-2.87,0-5.74,0-8.6a1.26,1.26,0,0,1,.27-.85C17.09,9,18.94,6.67,20.82,4.31c.12-.16.21-.49.48-.37s.13.4.13.62C21.44,7.26,21.44,10,21.44,12.67Zm-3.56-1.38c0-.35,0-.7,0-1,0-.13,0-.31-.15-.35s-.22.09-.29.19L16,11.94a1,1,0,0,0-.19.32c-.09.27,0,.43.3.44h1.47c.27,0,.36-.14.36-.38S17.88,11.63,17.88,11.29Zm1.72,3.57c1.17,0,1.23-.06,1.09-1.11v-.06a.27.27,0,0,0-.32-.28H18.84c-.2,0-.27.11-.29.3-.13,1.07-.07,1.15,1,1.15Zm0-4.28c1.19,0,1.22,0,1.11-1.08a.13.13,0,0,1,0-.06.28.28,0,0,0-.31-.3H18.86c-.19,0-.28.1-.31.3-.15,1-.06,1.14,1,1.14Zm-2.83,4.28c1.21,0,1.24,0,1.13-1.1,0-.26-.14-.36-.39-.35h-.93c-.86,0-.84-.14-.84.88,0,.55,0,.55.54.57Zm.11.66c-1.21,0-1.28.07-1.14,1.13,0,.22.12.33.35.33.49,0,1,0,1.46,0,.13,0,.28,0,.3-.16a2.1,2.1,0,0,0,0-1.14c-.14-.31-.52-.11-.78-.16ZM19.62,17c1.14,0,1.22-.09,1.08-1.13,0-.21-.12-.33-.35-.33H18.89c-.15,0-.31,0-.32.21a2,2,0,0,0,.06,1.14c.16.25.53.07.81.11Zm-2.86,2.11c1.2,0,1.24,0,1.13-1.07,0-.23-.11-.34-.34-.33H16.09c-.27,0-.34.13-.36.37-.08,1-.08,1,1,1Zm2.77,0c1.23,0,1.23,0,1.14-1.05V18c0-.21-.11-.29-.31-.29H18.89c-.22,0-.32.07-.34.31C18.44,19.05,18.47,19.09,19.53,19.09Zm.11-7.8c-1.23,0-1.08-.24-1.09,1.05,0,.26.1.37.36.37h1.41c.22,0,.32-.07.35-.31.12-1,.07-1.1-1-1.1Zm1.05-4c0-.25,0-.49,0-.74s0-.26-.13-.31-.22.06-.3.15c-.35.43-.7.85-1,1.28-.14.19-.44.36-.33.61s.44.14.67.13C20.84,8.45,20.69,8.64,20.69,7.33Z"/><path d="M28.76,18.13V21c0,.52,0,.53-.5.54H22.61c-.46,0-.49,0-.49-.5,0-1.9,0-3.8,0-5.71,0-.49,0-.5.54-.51h5.59c.5,0,.51,0,.51.53ZM24.05,17h.8c.16,0,.29-.06.3-.24,0-.36.13-.78-.07-1.08s-.57-.09-.87-.12a1.92,1.92,0,0,0-.24,0c-1.09,0-1.14.07-1,1.13,0,.2.09.31.3.31Zm2.89,0c1.15,0,1.14,0,1.08-1.06,0-.26-.1-.38-.36-.38H26.8c-1,0-1.05,0-1,1.06,0,.3.15.4.43.38Zm-2.84.69h-.18c-1.05,0-1.05,0-1,1.07,0,.27.14.35.39.34s.74,0,1.1,0c.74,0,.72.05.72-.69s0-.71-.69-.72Zm2.83,1.41c1.18,0,1.21,0,1.09-1.1,0-.21-.1-.3-.3-.3H26.19c-.16,0-.31,0-.31.22,0,.36-.13.77.06,1.07s.53.07.81.11A1.08,1.08,0,0,0,26.93,19.09Z"/><path d="M3.34,16.11c1,0,2,0,2.94,0,.31,0,.45.09.44.42,0,1.49,0,3,0,4.48,0,.33-.13.43-.43.42-.49,0-1,0-1.48,0-.3,0-.39-.11-.38-.4,0-.76,0-1.51,0-2.27s0-.63-.6-.63q-.56,0-1.11,0c-.43,0-.45,0-.46.46,0,.75,0,1.51,0,2.27,0,.56,0,.56-.58.57-.41,0-.82,0-1.23,0S0,21.33,0,21c0-1.5,0-3,0-4.49,0-.31.14-.42.45-.42C1.41,16.12,2.37,16.11,3.34,16.11Z"/><path d="M3.39,15.52H.44c-.11,0-.25,0-.32-.1s0-.23.1-.32l2.87-3.76c.25-.32.33-.32.56,0q1.46,1.86,2.89,3.74a.58.58,0,0,1,.11.15c.12.21,0,.3-.19.31H3.39Z"/><path d="M25.48,14.29H22.6c-.45,0-.47,0-.47-.44,0-1.3-.14-1.06,1-1.07h5.1c.51,0,.52,0,.52.5,0,1.2.16,1-1,1C27,14.3,26.24,14.29,25.48,14.29Z"/></g></g></svg>