<svg xmlns="http://www.w3.org/2000/svg" viewBox="0 0 16.74 22.54"><g id="Layer_2" data-name="Layer 2"><g id="Layer_1-2" data-name="Layer 1"><path d="M14.7,3.53c-.65.65-1.29,1.31-1.95,2-.18.18-.09.32,0,.49a7.06,7.06,0,0,1,.91,2.26,6.89,6.89,0,0,1-4.92,8c-.7.19-.7.19-.7.93,0,.3,0,.61,0,.92s.11.35.37.35H9.84c.27,0,.37.1.36.37q0,.65,0,1.29c0,.26-.1.37-.36.36-.47,0-.94,0-1.42,0-.25,0-.37.09-.36.35,0,.45,0,.9,0,1.36,0,.26-.11.36-.37.35-.43,0-.87,0-1.3,0S6,22.41,6,22.13s0-.86,0-1.29c0-.26-.09-.37-.35-.36-.47,0-1,0-1.42,0-.26,0-.37-.09-.36-.35,0-.43,0-.87,0-1.3s.13-.38.41-.37.82,0,1.23,0S6,18.46,6,18s0-.74,0-1.11-.11-.46-.44-.52a6.41,6.41,0,0,1-3.65-2,6.58,6.58,0,0,1-1.53-7A6.58,6.58,0,0,1,5.78,2.84a6.66,6.66,0,0,1,5,1.06c.43.28.43.28.8-.09l1.52-1.52c.09-.1.23-.17.24-.4-.52,0-1.05,0-1.57,0-.3,0-.46-.07-.43-.41s0-.74,0-1.1.06-.38.34-.38H16.4c.28,0,.34.13.34.37q0,2.34,0,4.68c0,.25-.08.38-.35.37s-.78,0-1.17,0-.38-.14-.38-.41c0-.47,0-.93,0-1.4ZM7,14.68a5.06,5.06,0,1,0-5.09-5A5,5,0,0,0,7,14.68Z"/><path d="M6.94,7.54h2.7c.44,0,.44,0,.45.44,0,1.18,0,1.18-1.12,1.18H4.31c-.5,0-.5,0-.51-.5,0-1.12,0-1.12,1.12-1.12Z"/><path d="M7,10.21H9.68c.31,0,.45.09.41.41s.17.86-.1,1.12-.71.08-1.07.08H4.31c-.5,0-.52,0-.51-.51,0-.34-.14-.77.08-1s.66-.08,1-.09C5.58,10.2,6.27,10.21,7,10.21Z"/></g></g></svg>