<svg xmlns="http://www.w3.org/2000/svg" viewBox="0 0 21.53 21.6"><g id="Layer_2" data-name="Layer 2"><g id="Layer_1-2" data-name="Layer 1"><path d="M0,15.3c0-.88,0-1.76,0-2.65a.79.79,0,0,1,.48-.82c1.43-.8,2.83-1.65,4.26-2.45a.78.78,0,0,0,.47-.82c0-1.62,0-3.24,0-4.86a.85.85,0,0,1,.48-.89C7.24,2,8.78,1.05,10.31.14a.78.78,0,0,1,.9,0q2.34,1.38,4.69,2.71a.79.79,0,0,1,.44.79c0,1.62,0,3.24,0,4.86a.89.89,0,0,0,.52.92c1.4.77,2.76,1.6,4.16,2.37a.9.9,0,0,1,.53.92c0,1.74,0,3.49,0,5.23a.85.85,0,0,1-.5.87q-2.28,1.29-4.53,2.62a.92.92,0,0,1-1.06,0c-1.39-.83-2.81-1.62-4.2-2.44a.81.81,0,0,0-1,0c-1.39.83-2.8,1.62-4.19,2.45a.93.93,0,0,1-1.07,0Q2.8,20.1.51,18.82A.86.86,0,0,1,0,17.94C0,17.06,0,16.18,0,15.3Zm20.3-3c0-.12-.12-.16-.2-.2-1.27-.74-2.55-1.47-3.82-2.22a.57.57,0,0,0-.67,0L11.9,12.06c-.11.07-.27.09-.3.26s.05.09.08.1c1.32.77,2.66,1.54,4,2.32a.57.57,0,0,0,.67-.05l3.77-2.18C20.18,12.47,20.29,12.43,20.31,12.31ZM.8,13a1.64,1.64,0,0,0-.07.2c0,1.53,0,3.07,0,4.61,0,.31.18.42.4.54L4.68,20.4c.13.07.26.21.43.16s.09-.14.09-.22c0-1.49,0-3,0-4.48a.6.6,0,0,0-.38-.57L1.64,13.45Zm15.6,7.56c.1.05.17,0,.24,0,1.29-.74,2.58-1.5,3.88-2.23.28-.15.29-.36.29-.61,0-1.41,0-2.82,0-4.23,0-.13.06-.29-.11-.39a.47.47,0,0,0-.16,0c-1.3.75-2.59,1.5-3.89,2.23a.6.6,0,0,0-.31.6c0,1.43,0,2.86,0,4.3C16.33,20.33,16.3,20.46,16.4,20.55ZM6.32,15.28a26.66,26.66,0,0,0,4.06,2.28A28.34,28.34,0,0,0,10.32,13ZM10.4,6.93,6.27,9.31c1.42.8,2.72,1.6,4.13,2.35Zm4.81,2.41a21.8,21.8,0,0,0-4.07-2.26,25.82,25.82,0,0,0,.09,4.55Zm-3.62-3.1a25,25,0,0,0,4,2.34V3.94ZM6,3.93V8.68l4.1-2.38Zm4,14.42a26.11,26.11,0,0,0-4-2.28v4.61Z"/></g></g></svg>