<svg xmlns="http://www.w3.org/2000/svg" viewBox="0 0 21.58 21.6"><g id="Layer_2" data-name="Layer 2"><g id="Layer_1-2" data-name="Layer 1"><path d="M4.59,10.84a6.21,6.21,0,1,1,6.19,6.23A6.18,6.18,0,0,1,4.59,10.84ZM11.8,7.75c-.12,1-.12,1,.47,1.54a2.16,2.16,0,0,1,.41,2.49,2.1,2.1,0,0,1-2.09,1.12A2,2,0,0,1,8.8,11.51a1.94,1.94,0,0,1,.61-2.28,1.1,1.1,0,0,0,.44-1.05c0-.39-.09-.43-.44-.28A3.22,3.22,0,0,0,11.33,14a3.21,3.21,0,0,0,2.6-3.88A3.15,3.15,0,0,0,11.8,7.75Zm-.56.41c0-.33,0-.65,0-1s-.19-.48-.45-.48-.42.17-.43.49c0,.66,0,1.31,0,2a.46.46,0,0,0,.44.49.48.48,0,0,0,.44-.5C11.26,8.82,11.24,8.49,11.24,8.16Z"/><path d="M10.27,1.82c0-.39,0-.78,0-1.17s.2-.64.5-.65a.54.54,0,0,1,.54.61c0,.84,0,1.68,0,2.51a.5.5,0,0,1-.53.55c-.29,0-.49-.2-.5-.57s0-.85,0-1.28Z"/><path d="M10.27,19.77c0-.43,0-.86,0-1.29a.5.5,0,0,1,.52-.55.49.49,0,0,1,.51.5q0,1.32,0,2.64a.53.53,0,0,1-.55.53.55.55,0,0,1-.48-.55c0-.1,0-.2,0-.3v-1Z"/><path d="M5.69,1.37a.58.58,0,0,1,.47.33c.42.72.84,1.44,1.25,2.18a.52.52,0,0,1-.16.74.53.53,0,0,1-.73-.23c-.44-.74-.88-1.48-1.28-2.23A.51.51,0,0,1,5.69,1.37Z"/><path d="M17.41,7.49A.44.44,0,0,1,17,7.23a.47.47,0,0,1,0-.52,1.23,1.23,0,0,1,.28-.23c.69-.4,1.38-.81,2.07-1.19.37-.21.64-.15.81.12s.08.55-.27.76c-.7.42-1.42.82-2.12,1.23A.63.63,0,0,1,17.41,7.49Z"/><path d="M16.41,1.91a.74.74,0,0,1-.14.37c-.38.67-.77,1.34-1.15,2,0,0,0,0,0,0a.57.57,0,0,1-.77.26.53.53,0,0,1-.13-.76c.4-.73.82-1.45,1.24-2.18a.46.46,0,0,1,.16-.18.44.44,0,0,1,.51-.09A.51.51,0,0,1,16.41,1.91Z"/><path d="M17.38,14.09a.77.77,0,0,1,.43.12l2.07,1.19a.55.55,0,0,1,.31.71.49.49,0,0,1-.66.26c-.81-.43-1.61-.9-2.4-1.36a.46.46,0,0,1-.19-.59A.46.46,0,0,1,17.38,14.09Z"/><path d="M1.84,16.44a.48.48,0,0,1-.4-.28.51.51,0,0,1,.06-.58,1.34,1.34,0,0,1,.3-.21l1.91-1.1a.9.9,0,0,1,.39-.16.5.5,0,0,1,.55.3.49.49,0,0,1-.11.56,1.38,1.38,0,0,1-.25.17c-.67.39-1.34.78-2,1.16A.71.71,0,0,1,1.84,16.44Z"/><path d="M7.54,17.46c-.06.13-.11.26-.18.38l-1.12,2A1.58,1.58,0,0,1,6,20.1a.44.44,0,0,1-.5.1.49.49,0,0,1-.33-.47.73.73,0,0,1,.09-.35c.42-.72.82-1.46,1.26-2.17a.51.51,0,0,1,.93,0A1.37,1.37,0,0,1,7.54,17.46Z"/><path d="M14.58,16.91a.55.55,0,0,1,.5.29c.41.73.84,1.45,1.24,2.18a.52.52,0,0,1-.18.79c-.26.13-.52,0-.71-.28-.43-.72-.85-1.44-1.25-2.17A.52.52,0,0,1,14.58,16.91Z"/><path d="M4.69,7a.52.52,0,0,1-.51.53.82.82,0,0,1-.4-.13L1.71,6.2a.55.55,0,0,1-.3-.3.53.53,0,0,1,.1-.57.46.46,0,0,1,.56-.11L4.46,6.59A.49.49,0,0,1,4.69,7Z"/><path d="M1.87,11.3H.58c-.37,0-.57-.19-.58-.49a.49.49,0,0,1,.55-.51c.86,0,1.72,0,2.57,0a.49.49,0,0,1,.55.51c0,.3-.21.48-.58.49Z"/><path d="M19.73,11.3H18.51c-.39,0-.62-.23-.6-.53s.24-.47.6-.47c.84,0,1.67,0,2.51,0a.49.49,0,0,1,.56.5c0,.29-.2.49-.56.5Z"/></g></g></svg>