<svg xmlns="http://www.w3.org/2000/svg" viewBox="0 0 31.21 15.96"><g id="Layer_2" data-name="Layer 2"><g id="Layer_1-2" data-name="Layer 1"><path d="M16.38,0A18.73,18.73,0,0,1,30.75,7.35c.61.76.62.54,0,1.31a18.48,18.48,0,0,1-11.88,7C11.4,16.82,5.2,14.43.36,8.58.3,8.51.25,8.42.18,8.34c-.25-.25-.23-.46,0-.74A19.43,19.43,0,0,1,3.76,4,19.65,19.65,0,0,1,16.38,0Zm.95,8.74c.43-.1.56-.25.59-.76,0-.2,0-.37.25-.42a.39.39,0,0,1,.44.26c.11.27.22.53.32.8a1.93,1.93,0,0,0,1,1,.16.16,0,0,0,.22,0,.14.14,0,0,0,0-.17c-.08-.16-.18-.32-.25-.49a.72.72,0,0,1,.4-.95l.35-.13c.37-.18.38-.23.25-.65-.05-.14-.12-.29,0-.4s.24,0,.35.12c.48.35.49.4.3,1A1.11,1.11,0,0,0,22,9.22c.33-1.16.26-1.64-.3-2.1a.8.8,0,0,0,.18-1,6.52,6.52,0,0,0-9-4,1,1,0,0,0-.47.31c.42,0,.8,0,1.18,0s.52,0,.66.56a.86.86,0,0,0,.27.4c.11.09.26.14.26.32-.69.54-.83.6-1.27.55.09-.31.52-.28.65-.54a.32.32,0,0,0-.37-.12,10,10,0,0,1-1.64.26,1.21,1.21,0,0,0-.76.36.23.23,0,0,0,0,.37,1,1,0,0,0,1.32.05c.15-.14.28-.3.55-.13-.34.39-.6.82-1.25.56a.94.94,0,0,0-.89.09c-.23.17-.62.18-.61.61,0,.16-.18.21-.33.17a1,1,0,0,0-.6,0,.31.31,0,0,0-.16.42.23.23,0,0,0,.32.18c.31-.1.64-.17.94-.29.6-.26.59-.27.91.26,0,0,.06.11.15.08l.08-.26c.23,0,.29.37.58.23a.23.23,0,0,1,.3.15.32.32,0,0,1-.13.38.92.92,0,0,1-.93.1,9.53,9.53,0,0,0-1.27-.44.91.91,0,0,0-1.23.93,6,6,0,0,0,.33,2.42c.19.55.26.58.79.33s.59-.18.83.18.59.56.73,1a7.78,7.78,0,0,1,.17.81c.1.5.29.62.77.44a1,1,0,0,0,.59-.51,3.57,3.57,0,0,1,.23-.57A2.71,2.71,0,0,0,14,10.16a.26.26,0,0,1,.29-.28c0,.48-.29.94-.1,1.51a4.16,4.16,0,0,0,.49-1.13c.21-.46.2-.47-.32-.51a.77.77,0,0,1,.07-.16c.25-.43.25-.44-.16-.72A2.16,2.16,0,0,1,14,8.66a1.16,1.16,0,0,1-.41-1c.23,0,.29.22.41.32s.25.28.39.39a.64.64,0,0,0,.87-.17c.22-.25.1-.45-.1-.64s-.33-.3-.48-.47-.33-.24-.3-.57l1.11.68a.25.25,0,0,1,.1.15c.1.54.51.69,1,.83.26.08.57.13.66.46-.13,0-.28-.05-.4.06s-.12.13-.07.2a.43.43,0,0,0,.42.17C17.37,9,17.36,8.89,17.33,8.74Zm2.59,3.82c.22.1.37,0,.52-.18a6.76,6.76,0,0,0,1.15-1.79.77.77,0,0,0,0-.71c-.08-.13-.18-.19-.3-.1a4.19,4.19,0,0,1-1.6.56c-1.09.28-1.36,1-.93,2.08,0,.1.13.21.23.15C19.27,12.35,19.59,12.59,19.92,12.56Zm-.43.67a1.15,1.15,0,0,0-1.39.17,1.06,1.06,0,0,1-1.28.18,6.33,6.33,0,0,0-1.29-.36,1.76,1.76,0,0,0-1.65.44c-.36.37-.29.6.2.72a6.42,6.42,0,0,0,5.41-1.15ZM9.58,5.55c.32,0,.43-.18.58-.31l.45-.4c.11-.1.37-.13.27-.33s-.29-.11-.45-.09a.56.56,0,0,0-.45.27A3.41,3.41,0,0,0,9.58,5.55Zm1.72-2c0-.16-.08-.22-.23-.22s-.67.43-.67.64a.16.16,0,0,0,.09.13A.7.7,0,0,0,11.3,3.54Zm9.37,6.15c.13,0,.25,0,.25-.15a.33.33,0,0,0-.35-.29.21.21,0,0,0-.25.2C20.33,9.66,20.54,9.64,20.67,9.69ZM20.22,8.6s-.13.05-.13.09a.27.27,0,0,0,.27.32c.08,0,.18,0,.16-.12A.37.37,0,0,0,20.22,8.6Z"/><path d="M17.34,8.76c-.08,0-.13,0-.13-.14S17.35,8.65,17.34,8.76Z"/></g></g></svg>