<svg xmlns="http://www.w3.org/2000/svg" viewBox="0 0 28.39 19.85"><g id="Layer_2" data-name="Layer 2"><g id="Layer_1-2" data-name="Layer 1"><path d="M11.42,12.93l.37-.69,1.6-3L13.54,9a.49.49,0,0,1,.5-.29.48.48,0,0,1,.45.43c.11.65.23,1.29.34,1.94.33,1.94.67,3.87,1,5.84.29-.18.27-.48.34-.71Q18.51,8.49,20.84.75c.09-.31.12-.69.53-.74s.55.35.69.65c.78,1.61,1.56,3.21,2.33,4.82a2.23,2.23,0,0,1,.18.45.44.44,0,0,1-.29.55.47.47,0,0,1-.59-.19,3.68,3.68,0,0,1-.23-.44c-.53-1.1-1.06-2.21-1.6-3.32-.09-.18-.19-.35-.33-.63L21,3.67,16.33,19.13c0,.14-.08.28-.13.41a.48.48,0,0,1-.92-.06c-.08-.32-.13-.65-.19-1l-1.26-7.38c0-.08,0-.17-.12-.21s-.24.31-.33.48c-.55,1-1.09,2-1.63,3l-.24.43a.49.49,0,0,1-.56.28.51.51,0,0,1-.41-.48L10.3,13c-.23-1.56-.45-3.12-.67-4.67-.23,0-.22.15-.27.26-.48,1-.95,2.09-1.4,3.14a.83.83,0,0,1-.89.58c-2.09,0-4.18,0-6.27,0a1.56,1.56,0,0,1-.43,0,.47.47,0,0,1-.37-.5.46.46,0,0,1,.43-.45H.92c1.86,0,3.73,0,5.59,0a.71.71,0,0,0,.78-.51c.63-1.48,1.3-3,2-4.43.22-.5.38-.64.67-.58s.42.45.47.77q.45,3.18.91,6.38Z"/><path d="M21.22,10.45a2.18,2.18,0,0,1,.22-1,1.74,1.74,0,0,1,2.79-.66c.19.16.32.44.56.45s.38-.28.57-.43a1.75,1.75,0,0,1,2.92,1A2.15,2.15,0,0,1,27.82,12c-.92,1-1.88,1.88-2.81,2.83-.18.19-.29.13-.45,0-.9-.92-1.82-1.83-2.72-2.74A2.12,2.12,0,0,1,21.22,10.45Z"/></g></g></svg>