<svg xmlns="http://www.w3.org/2000/svg" viewBox="0 0 575.54 575.78"><defs><style>.cls-1{fill:#2b7fff;}.cls-2{fill:#f0b100;}.cls-3{fill:#fb2c36;}.cls-4{fill:#f6339a;}</style></defs><g id="Layer_2" data-name="Layer 2"><g id="Layer_1-2" data-name="Layer 1"><rect y="0.24" width="575.54" height="575.54"/><rect class="cls-1" x="240.87" width="63.89" height="63.89"/><rect class="cls-2" x="176.93" y="130.83" width="63.89" height="63.89"/><rect class="cls-1" x="304.09" y="194.72" width="64.75" height="63.89"/><rect class="cls-2" x="368.83" y="194.72" width="63.89" height="63.89"/><polygon class="cls-3" points="240.97 194.72 240.97 258.62 240.97 322.51 304.86 322.51 304.86 258.62 304.86 194.72 240.97 194.72"/><rect class="cls-4" x="368.83" y="258.62" width="63.89" height="63.89"/><rect class="cls-1" x="305.02" y="322.51" width="63.89" height="63.89"/><rect class="cls-3" x="432.89" y="322.51" width="63.89" height="63.89"/><rect class="cls-3" x="305.02" y="386.4" width="63.89" height="63.89"/><rect class="cls-4" x="368.87" y="450.25" width="63.89" height="63.89"/><rect class="cls-4" x="368.95" y="511.89" width="63.89" height="63.89"/><rect class="cls-3" x="432.81" y="511.89" width="63.89" height="63.89"/><rect class="cls-1" x="48.97" y="447.9" width="63.89" height="63.89"/><rect class="cls-4" x="432.89" y="386.4" width="63.89" height="63.89"/><rect class="cls-3" x="112.96" y="322.51" width="63.89" height="63.89"/><rect class="cls-2" x="368.9" y="322.51" width="63.89" height="63.89"/></g></g></svg>