<svg xmlns="http://www.w3.org/2000/svg" viewBox="0 0 224.91 225"><defs><style>.cls-1{fill:#231f20;}</style></defs><g id="Layer_2" data-name="Layer 2"><g id="Layer_1-2" data-name="Layer 1"><path class="cls-1" d="M127.34,162.11v40.38a72.44,72.44,0,0,0,17.72-29.71,7.78,7.78,0,0,0,.3-1.15V84.24H127.28Z"/><path class="cls-1" d="M97.21,200.08v21.15a67.62,67.62,0,0,0,12.05-5.12,60.76,60.76,0,0,0,6-3.56V132.46H97.21Z"/><path class="cls-1" d="M204.9,19.82A68.35,68.35,0,0,0,88.58,63.75v.55a13.76,13.76,0,0,1-3.07,9.46,12.82,12.82,0,0,1-4.72,2.55,12.68,12.68,0,0,1-5.34.4H74.18A74.13,74.13,0,0,0,43,218.1,79.55,79.55,0,0,0,55,222.44c2,.48,4,1,6,1.38s4,.55,6,.79a51.37,51.37,0,0,0,6,.3,50.38,50.38,0,0,0,6,0,50.05,50.05,0,0,0,6-.6V150.54H67.07v54.24a42.45,42.45,0,0,1-6-1.14A52,52,0,0,1,43,195.5a62.12,62.12,0,0,1-7.23-6A54.24,54.24,0,0,1,74.06,96.3h.42a31.33,31.33,0,0,0,25-8.68,32.65,32.65,0,0,0,9-22.42,48.22,48.22,0,0,1,14.11-31.1,48.42,48.42,0,1,1,71.11,65.75,27.29,27.29,0,0,1-2.53,2.84,48.36,48.36,0,0,1-15.55,10.36V66.17H157.53V136.8a23.62,23.62,0,0,1,3.13-.36h.67a73.77,73.77,0,0,0,8.25-1c2-.42,4.1-1,6-1.44a65.66,65.66,0,0,0,29.29-17.42,68.46,68.46,0,0,0,0-96.73Z"/></g></g></svg>