<svg xmlns="http://www.w3.org/2000/svg" viewBox="0 0 174.38 245.53"><g id="Layer_2" data-name="Layer 2"><g id="Layer_1-2" data-name="Layer 1"><path d="M174.38,205.77v8.34a14.62,14.62,0,0,1-5.75,6.36,1.64,1.64,0,0,0-.49,1.39c.24,1.36.83,2.68,1,4a17.87,17.87,0,0,1-.27,4.44c-.08.48-.87.84-1.34,1.26-.38-.49-1-.92-1.1-1.46-.38-1.79-.58-3.62-.85-5.44-.19-1.28-.08-2.71-.63-3.82-1.18-2.42-2.67-4.68-4.07-7a.94.94,0,0,0-1.7-.17c-2,2.27-4.06,4.5-5.95,6.85a3.54,3.54,0,0,0,1,5.29,7.17,7.17,0,0,1,3.93,5.65c.86,4.94.23,9.29-4.26,12.38a10.46,10.46,0,0,0-1.4,1.63h-1a2.12,2.12,0,0,0-1.34-2,2,2,0,0,1-.82-3.21c.3-.44.7-.81,1-1.24a2.85,2.85,0,0,0-.35-3.69,1.44,1.44,0,0,0-2.36.85,13,13,0,0,0,0,2.07c0,1.5-.8,2.4-2.27,2.17a13,13,0,0,1-3.72-1.12A57.65,57.65,0,0,1,128.28,230a7.85,7.85,0,0,1-2.44-5.35,55.9,55.9,0,0,1,0-6.6,5.64,5.64,0,0,1,2.08-3.9c.94-.9,1.83-1.85,2.81-2.84-1.69-.83-2.36-2.43-3-4a4.88,4.88,0,0,0-2.77-2.95c-2.31-.9-4.68-1.69-7-2.47-.84-.28-1.35.1-1.33,1,0,.4,0,.81,0,1.22a1.52,1.52,0,0,1-.84,1.75c-1.48.83-1.42,2.67-.1,3.8.41.36,1.27.61.7,1.4a1.6,1.6,0,0,1-2.14.68,5.46,5.46,0,0,1-1.77-1.64c-1-1.47-1.77-3-2.68-4.62-.53.8-1.12,1.6-1.62,2.46-.78,1.29-2,.76-3,.65s-.8-1.06-.82-1.78c0-.37,0-.73,0-1.1,0-1.62-1.2-2.49-2.66-1.75a7.71,7.71,0,0,0-2.5,2.08c-2.58,3.3-4,7.17-5.43,11.06-.65,1.83-.64,1.83-2.58,1.83-1.15,0-2.3,0-3.44,0a1.28,1.28,0,0,1-1-.55,1.2,1.2,0,0,1,.23-1.08c3.32-3.53,4.44-7.95,5-12.53a6.62,6.62,0,0,1,3.82-5.43,30.09,30.09,0,0,1,9.57-2.92c1.9-.29,2.3-.63,2.39-2.56.07-1.46,0-2.93,0-4.53,3.76-.5,7.48-1,11.2-1.47a6.63,6.63,0,0,1,2.3.19,2.36,2.36,0,0,1,1.89,2.85,18,18,0,0,0-.2,2.31,1.77,1.77,0,0,0,1.88,2,17.55,17.55,0,0,0,3.55,0,2.66,2.66,0,0,0,1.7-1.17,18.84,18.84,0,0,0,1.51-3.72c.25-.81.62-1.15,1.46-1,.4.06.83,0,1.23,0,2.1.39,3.65-.71,5-2a7,7,0,0,0,1.15-2.34,2.38,2.38,0,0,0,.05-.85c.06-1.07-.29-2.38,1-2.91s2.71.08,3.85,1a8,8,0,0,1,1,1.08c1,1.16,1.48,1.09,2-.37.33-1,.59-2,.92-3.17.43.15.76.26,1.08.39.83.33,1.64.74,2.49,1,1.45.46,1.81.17,1.66-1.32-.32-3.25-.47-6.5-1.68-9.61-.72-1.82-.26-3.1.89-3.85a1.43,1.43,0,0,1,2,.23c2,1.73,4.2,3.34,6.29,5,.5.42.87,1,1.34,1.45s1,1.21,1.61,1.37a2.83,2.83,0,0,1,2.27,2.58,17.77,17.77,0,0,0,2,4.58c.82,1.49.82,2.39-.47,3.56-.7.62-1.52,1.11-2.23,1.72-1.19,1-1.05,1.77.46,2.22a15.81,15.81,0,0,0,3,.51c.83.08,1.18.44,1.09,1.26a12.72,12.72,0,0,0-.26,2.79,3.53,3.53,0,0,0,1,2.07,4.24,4.24,0,0,1,.74,6.16c-.46.62-.48,1,.08,1.53A21.69,21.69,0,0,1,174.38,205.77Z"/><path d="M0,189.07c.4-.6.83-1.18,1.18-1.81,2.66-4.79,6.75-8.16,11.13-11.23,1.38-1,2.5-2.34,4.32-2.65.42-.07.79-.55,1.13-.9,2.27-2.29,4.56-4.56,6.78-6.9a44.2,44.2,0,0,0,3.53-4.21,9.2,9.2,0,0,0,.91-2.31l.46-.26,1.2,2.11.5-.26c.2-.67.41-1.35.6-2,.78-2.84,2.25-4.86,5.54-5,.47,0,1-.58,1.38-1a17.87,17.87,0,0,0,3.1-9.16c.14-1.59.3-3.17.48-4.76a5.77,5.77,0,0,1,.34-1.42c.31-.77.5-1.9,1.55-1.78a1.89,1.89,0,0,1,1.47,2.14,42.52,42.52,0,0,1-.5,6.09,6.61,6.61,0,0,0,1.75,6.08c1.81,1.92,1.74,2.32-.61,3.54a29,29,0,0,0-8.57,6.41c-1.4,1.56-3.46,2.55-5.3,3.67a2.24,2.24,0,0,0-1.33,1.7c-.74,5-4.07,8.12-7.95,10.79a4.91,4.91,0,0,1-2.28.84,2.23,2.23,0,0,0-2,1.47,11,11,0,0,1-6.33,5.47c-1.28.43-2.54.92-3.83,1.29a1.84,1.84,0,0,0-1.54,1.77,2.54,2.54,0,0,1-.8,1.57,9.72,9.72,0,0,1-5.66,2c-.21,0-.43-.19-.65-.3Z"/><path d="M93.57,2.21a8.75,8.75,0,0,1,4.61,3.06,3.13,3.13,0,0,1-2,4.77,1.94,1.94,0,0,0-1.9,2.21c.06,3.39.06,6.78.25,10.17.1,1.74.6,2.18,2.34,2.45A2.22,2.22,0,0,1,99,27.22,1.65,1.65,0,0,0,100.42,29a1.36,1.36,0,0,1,.62,1.17c-1,3.7-2,7.41-4.8,10.31a2.87,2.87,0,0,0-.67,1.39,19.93,19.93,0,0,0-.26,2.68c-.13,2.38-.91,3.29-3.3,3.34A9.54,9.54,0,0,0,83.3,53.1c-.56,1-1.21,2,.21,3,.18.12,0,1.05-.2,1.43-.8,1.22-1.84,2.29-2.6,3.54a3.79,3.79,0,0,0,.37,4.77,14,14,0,0,1,3.09,5.49c.23.85,1.22,1.49,2.06,2.45-.23.34-.61,1-1.06,1.57-1.48,1.94-1.55,2.92,0,4.8a4.87,4.87,0,0,1,1.3,3.44A1.61,1.61,0,0,0,87,84.75c1.33,1.13,2.7,2.24,4.13,3.27,1.7,1.23,2.53,1,3.33-1a3.47,3.47,0,0,1,1.93-2.35c.42-.15.69-.88.88-1.39A2.06,2.06,0,0,1,99,81.78c1.73-.24,3.46-.59,5.2-.68,1.45-.07,2.51.75,3.58,1.8,2.27,2.22,3.25,4.67,2.54,7.83a2.25,2.25,0,0,0,.76,1.85c.33.26,1.26,0,1.77-.28a1.81,1.81,0,0,0,.62-1.32c0-1-.24-2.13-.13-3.17a2.57,2.57,0,0,1,1-1.62c.67-.49,1.3,0,1.77.57,1.08,1.37,2.35,2.15,4.16,1.36a1.31,1.31,0,0,1,.83,0,9.64,9.64,0,0,1,5.34,4.51c-1.59.17-3,.26-4.38.51a9.1,9.1,0,0,0-2.42.82c-1.16.57-1.19,1.08-.22,1.89a5.54,5.54,0,0,0,.9.65,4,4,0,0,1,2.24,2.83c.22.91,1.3,1.67,2.08,2.4s1.85,1.45,2.73,2.22,1.59,2,3.1,2c.15,0,.46.55.47.85a12.5,12.5,0,0,1-1.49,7c-.88,1.58-1.95,1.77-3.44.75-2.56-1.76-2.6-3.67-.14-5.57.63-.49,1.65-1.06,1-1.91s-1.58-.1-2.24.41a13.67,13.67,0,0,0-1.49,1.46,1.87,1.87,0,0,1-2.55.36c-1-.69-2-1.54-3.06-2.24-.87-.57-1.85-1-2.72-1.57a1.86,1.86,0,0,1-.64-1.11c-.28-1.34-.35-2.73-.72-4a3.75,3.75,0,0,0-3.47-2.69,4,4,0,0,1-3.84-3.5,4.45,4.45,0,0,0-2.61-3.32l-4.09-2a7.66,7.66,0,0,1,.56,1.35,29.11,29.11,0,0,1,.51,4.05c0,.79.1,1.27,1,1.29a1.7,1.7,0,0,1,1.8,1.78,23.27,23.27,0,0,1,.12,3.91,2.07,2.07,0,0,1-1,1.58,4.33,4.33,0,0,1-2.32-.33c-.2-.07-.37-.84-.25-1.18.9-2.46-.48-3.92-2.68-5a24.68,24.68,0,0,0-2.51-1A2.07,2.07,0,0,1,93,93.34,2.77,2.77,0,0,0,91.14,91c-1.08-.49-2.16-1-3.23-1.5-2.41-1.16-4.44-.24-6.36,1.2a1,1,0,0,0-.44.69c.07,1.2-.74,1.57-1.65,1.77-1.94.44-3.9.8-5.93,1.22l.35-1.67h-4c0-.26,0-.3,0-.34.08-.7.17-1.4.25-2.1a22.67,22.67,0,0,0-2.34.3c-.81.19-1.59.52-2.58.85-.07-.81-.14-1.4-.15-2-.05-1.88-.06-3.76-.14-5.64a1.8,1.8,0,0,1,1-1.76,31.12,31.12,0,0,0,4.44-3.23c2.21-2.07,1.93-3.85-.61-5.41A27.08,27.08,0,0,0,67,71.78,9.44,9.44,0,0,0,65,71.34a12.2,12.2,0,0,0,.12,2c.18.88.53,1.72.77,2.58a11.06,11.06,0,0,1,.37,1.8c.16,1.73-.37,2.23-2.11,2-3.48-.36-5-1.68-5.69-5.19-.18-.84-.39-1.37-1.45-1.45-.45,0-1.07-.85-1.22-1.41-.52-2-.87-4.07-1.28-6.11-.12-.56-.2-1.12-.3-1.69A2.07,2.07,0,0,0,53,62.12c-.28-.12-.61-.93-.47-1.12,1.28-1.82,1-3.8.74-5.79-.14-1.18-.2-2.37-.26-3.55-.05-.91-.46-1.33-1.41-1.26-.7.06-1.41,0-2.43,0,1.07-2.27,2-4.18,2.9-6.05A1,1,0,0,1,53,44c.34.19.74.63.73,1,0,.94.4,1.11,1.23,1.39a9.4,9.4,0,0,1,2.88,1.93c.78.69,1.45,1.5,2.63,1.2A3.3,3.3,0,0,0,62.8,47,1.28,1.28,0,0,0,62,45.25a2.83,2.83,0,0,1-2-3.45,15.38,15.38,0,0,1,.84-3.18c1.52-4.23,2.63-8.53,2-13.07-.14-1.06-.65-2.08-.89-3.14A6.19,6.19,0,0,1,61.76,20c.2-1.15.73-2.25,1-3.4.45-1.93.75-3.9,1.22-5.83a10.88,10.88,0,0,1,1.08-2.9c.68-1.17,1.31-2.25.81-3.66-.28-.79.23-1.1.89-1.06,1.38.07,1.88-.6,2.11-1.89C69.12-.17,70-.41,71,.67a2.72,2.72,0,0,0,3.77.61C76.44.36,77,.66,78.36,2A21,21,0,0,0,89.25,8a7.5,7.5,0,0,0,1.34.11c2.48,0,3.41-1,3.23-3.48C93.77,3.92,93.67,3.18,93.57,2.21Z"/><path d="M131.75,115c.82.11,1.42.14,2,.27a15.92,15.92,0,0,0,8-.27,27.89,27.89,0,0,1,5.65-1c2.06-.14,2.76.47,3.44,2.42a7.26,7.26,0,0,0,3,4c1.23.74,1.49,1.43.73,2.67-1.88,3.07-1.22,6.22-.54,9.39a4.46,4.46,0,0,0,2.54,3.26,9.1,9.1,0,0,1,1.29.91l-2.52,2c.07.11.11.23.15.23,2.51-.2,3,2.18,4.3,3.46.06.06-.28.79-.44.79a7.18,7.18,0,0,1-2.17-.21c-1.88-.53-3.7-1.22-5.74-1-1.25.15-1.69-1-2.14-1.9a2.77,2.77,0,0,0-3.15-1.72c-.17,2.74-.42,5.41-.44,8.08a4.29,4.29,0,0,0,1,2.25c1.23,1.73,2.62,3.34,3.84,5.07.55.79,1,1.82.35,2.74a3.37,3.37,0,0,1-3.28,1.55,9.46,9.46,0,0,1-2.6-1.45c0,.86.13,1.92.12,3,0,.43-.15,1.07-.44,1.24s-.9-.06-1.28-.27a4.72,4.72,0,0,1-2.59-4.57c0-2.3-.17-4.54,1.11-6.65a2.46,2.46,0,0,0-.56-3.24c-1.05-.93-2.19-1.75-3.37-2.68a28,28,0,0,1-1.4,2.61,1.5,1.5,0,0,1-1.09.56c-.2,0-.53-.59-.57-.94a18.79,18.79,0,0,1-.17-3.18,9.87,9.87,0,0,0-1.29-5.52,26.28,26.28,0,0,1-1.2-2.64l.25-.32a11.82,11.82,0,0,1,1.58.56c1.2.62,2.34,1.35,3.55,1.92a5.32,5.32,0,0,0,4.85,0c1-.48,1.94-.79,3,.57-.13-1.64-.61-2.63-2.09-3,.58-1,1.12-1.77,1.57-2.63.72-1.36.28-2-1.25-2.2a1.9,1.9,0,0,1-1.25-.86,6.1,6.1,0,0,0-4.17-3.34,5.22,5.22,0,0,1-3.63-3c-.82-1.73-1.71-3.43-2.51-5.17A11.57,11.57,0,0,1,131.75,115Z"/><path d="M107.42,135c1.25-.79,2.5-1.58,4-2.53a27.42,27.42,0,0,1,0,4,11.37,11.37,0,0,1-1.2,3.93,4.54,4.54,0,0,1-2.34,1.75,4.07,4.07,0,0,0-3.09,3.81c-.1,1.55-.11,3.11-.2,4.66a3.61,3.61,0,0,1-1.89,3.23c-1,.57-1.75.32-2-.84a21.62,21.62,0,0,1-.32-2.67c-.16-1.59-.28-1.72-1.89-1.55a8.68,8.68,0,0,0-5.46,2.51c-1,1-1.92,2-3,3-.35.32-1.07.72-1.35.57a1.88,1.88,0,0,1-.73-1.39,8.67,8.67,0,0,1,.38-2c.16-.81.6-1.72.38-2.42a4.4,4.4,0,0,1,.42-3.4,32.35,32.35,0,0,0,2.9-12.57c.11-2.38-.54-3.14-2.84-3.69-.91-.22-1.85-.32-1.42-1.69S89,126,90.22,126.4c1.71.57,3.42,1.11,5.08,1.8a7.5,7.5,0,0,1,4,3.76c.65,1.35,1.11,1.46,2.4.66a3.9,3.9,0,0,1,3.49-.55c1.33.42,2.19,1.07,1.87,2.69Z"/><path d="M110.07,180.29c-2.44,0-3.66-1-4.08-3.43-.39-2.19-.45-2.27-2.59-2.73a6.17,6.17,0,0,1-4.69-3.56,4.31,4.31,0,0,0-1.12-1.43c-1.78-1.53-1.38-5.61,1.29-6.42,1.52-.46,3-1,4.54-1.44a2.05,2.05,0,0,0,1.67-2.24c-.07-1.88-.24-3.75-.23-5.63a2.78,2.78,0,0,1,.71-1.8,9.08,9.08,0,0,0,2.79-4.91c.43-2.11,1.59-2.63,3.7-2.28a17.65,17.65,0,0,0,3.63,0c.52,0,1-.21,1.57-.21,1.16,0,1.45.55,1.19,1.66a20.92,20.92,0,0,0-.76,4.54,3.67,3.67,0,0,1-1.8,3.5,5.52,5.52,0,0,0-2.6,4.08,24.86,24.86,0,0,1-2.14,7.1c-1,1.78-.42,3.74.37,5.57.55,1.27,1.06,2.56,1.51,3.87a6.21,6.21,0,0,1-.38,4.54C112.17,180.16,111.12,180.27,110.07,180.29Z"/><path d="M63.81,95.89a23.62,23.62,0,0,1,2.42.41,8.48,8.48,0,0,0,5.18.1,1.41,1.41,0,0,1,1.79.88c.61,1.13,1.39,1.79,2.78,1.22a1.22,1.22,0,0,1,1,.25c1.48,1.16,3,2.33,4.36,3.57,1.24,1.11,1.34,1.87.5,3.35a5.61,5.61,0,0,0-.2,4.4c.27,1,.61,2,.95,3,.29.84.05,1.37-.81,1.57a2.76,2.76,0,0,0-2.19,2.61,6.2,6.2,0,0,1-.16.72c-.56,2.36-1.32,3.08-3.26,3.12-2.49,0-3.79-.83-4.4-3-.22-.78-.37-1.59-.52-2.39a5.46,5.46,0,0,0-2.09-3.6,3.27,3.27,0,0,1-.94-2c-.28-1.6-.33-3.24-.59-4.85a3.44,3.44,0,0,0-3.31-3.08c-1-.1-1.43-.42-1.44-1.5,0-1.3-.71-1.8-2-2A8.54,8.54,0,0,1,59,98a6.61,6.61,0,0,1,1.63-1.31A24.36,24.36,0,0,1,63.81,95.89Z"/><path d="M128,151.08c.75,1.7-.32,3-1.76,4.29a35.89,35.89,0,0,0-2.61,2.76,12.06,12.06,0,0,0-3.28,5.9c-.17.92-.6,1.78-.84,2.68-.62,2.38-2.57,3.6-4.32,5-.79.62-1.33.09-1.25-.71a40.41,40.41,0,0,1,.88-6.13,22.06,22.06,0,0,1,2-4.56q4.26-8,8.62-15.94c.26-.45.85-.73,1.28-1.09a4.93,4.93,0,0,1,.77,1.49C127.78,146.72,127.88,148.72,128,151.08Z"/><path d="M127.52,130.2a7.76,7.76,0,0,1-.93-1.1,4.38,4.38,0,0,0-4.27-2.33c-1.26.06-1.7-.52-2-1.62a11.82,11.82,0,0,0-1.3-3c-.54-.86-1.3-1-2.13-.17a27.41,27.41,0,0,1-2.8,2.37,1.47,1.47,0,0,1-1.3.18c-.27-.18-.36-.84-.31-1.27.2-1.74.46-3.47.74-5.2a8.08,8.08,0,0,1,.53-1.88,2.18,2.18,0,0,1,3.1-1.31,11.11,11.11,0,0,1,3.3,2.56,7.23,7.23,0,0,0,3.3,2.38,8.91,8.91,0,0,1,5.42,7.5A3.25,3.25,0,0,1,127.52,130.2Z"/><path d="M123.37,166.86a13.31,13.31,0,0,1,.61-2.45c.19-.45.81-1,1.21-1,1.78.09,2.77-1,3.75-2.16.71-.84,1.38-1.72,2.14-2.51s1.49-.74,2.44,0a8.74,8.74,0,0,0,3.15,1.37c.85.21,1.26.51,1.14,1.36-.25,1.86-.48,3.71-.83,5.55-.06.33-.58.62-.94.85-1,.65-2,1.3-3.12,1.87a1.45,1.45,0,0,1-1.14.12c-1.91-1-3.93-.78-6-.69C123.56,169.27,123.48,169.15,123.37,166.86Z"/><path d="M135.83,91.63c0,1.75-2.7,5-4.47,5.2a3.09,3.09,0,0,1-2-.81c-1.49-1.3-1.46-1.36-.54-3a5.31,5.31,0,0,0,.63-3.4,6.07,6.07,0,0,1,.46-2.7c.36-1,1-1,1.6-.19a4.31,4.31,0,0,1,.54,1c.38.91.78,1.64,2,1.49C134.88,89.05,135.84,90.56,135.83,91.63Z"/><path d="M91.68,229.25a6.65,6.65,0,0,1-5.17-2.52c-1-1.32-.57-2,.8-2.86,2.64-1.65,4.92-.45,7.29.52a1.6,1.6,0,0,1,1.16,1.91,4,4,0,0,1-1.3,2.16A9.06,9.06,0,0,1,91.68,229.25Z"/></g></g></svg>